<?xml version="1.0" encoding="UTF-8"?>
<!DOCTYPE svg PUBLIC "-//W3C//DTD SVG 1.1//EN" "http://www.w3.org/Graphics/SVG/1.1/DTD/svg11.dtd">
<svg xmlns="http://www.w3.org/2000/svg" version="1.1" width="600px" height="468px" style="shape-rendering:geometricPrecision; text-rendering:geometricPrecision; image-rendering:optimizeQuality; fill-rule:evenodd; clip-rule:evenodd" xmlns:xlink="http://www.w3.org/1999/xlink">
<g><path style="opacity:1" fill="#fefefe" d="M -0.5,-0.5 C 199.5,-0.5 399.5,-0.5 599.5,-0.5C 599.5,155.5 599.5,311.5 599.5,467.5C 399.5,467.5 199.5,467.5 -0.5,467.5C -0.5,311.5 -0.5,155.5 -0.5,-0.5 Z"/></g>
<g><path style="opacity:1" fill="#f9e5df" d="M 344.5,43.5 C 320.506,42.5557 296.506,42.389 272.5,43C 262.985,43.5102 253.652,44.3436 244.5,45.5C 242.5,45.5 240.5,45.5 238.5,45.5C 238.918,44.7784 239.584,44.2784 240.5,44C 247.123,43.4473 253.623,42.2807 260,40.5C 285.152,41.3008 310.319,41.8008 335.5,42C 338.695,42.1805 341.695,42.6805 344.5,43.5 Z"/></g>
<g><path style="opacity:1" fill="#d22623" d="M 344.5,43.5 C 347.833,44.1667 351.167,44.8333 354.5,45.5C 337.18,44.5597 319.847,43.893 302.5,43.5C 283.162,44.0929 263.829,44.7596 244.5,45.5C 253.652,44.3436 262.985,43.5102 272.5,43C 296.506,42.389 320.506,42.5557 344.5,43.5 Z"/></g>
<g><path style="opacity:1" fill="#d24e4c" d="M 178.5,56.5 C 176.485,57.9238 174.152,58.5905 171.5,58.5C 173.515,57.0762 175.848,56.4095 178.5,56.5 Z"/></g>
<g><path style="opacity:1" fill="#e0100c" d="M 354.5,45.5 C 412.145,49.4398 465.811,65.9398 515.5,95C 528.239,103.737 539.739,113.904 550,125.5C 554.525,132.174 558.359,139.174 561.5,146.5C 562.535,152.492 563.702,158.492 565,164.5C 565.499,169.489 565.666,174.489 565.5,179.5C 562.195,197.774 553.862,213.44 540.5,226.5C 525.714,240.726 509.047,252.226 490.5,261C 457.036,276.287 422.036,286.787 385.5,292.5C 380.876,292.763 376.542,293.763 372.5,295.5C 363.162,296.106 353.829,296.773 344.5,297.5C 338.509,297.966 332.509,298.299 326.5,298.5C 302.491,298.627 278.491,298.294 254.5,297.5C 253.833,297.5 253.167,297.5 252.5,297.5C 252.414,296.504 252.748,295.671 253.5,295C 251.674,294.708 249.841,294.875 248,295.5C 234.807,294.401 221.64,293.068 208.5,291.5C 194.552,289.26 180.885,286.26 167.5,282.5C 165.485,281.076 163.152,280.41 160.5,280.5C 124.874,271.253 92.8735,255.086 64.5,232C 53.9154,221.979 45.4154,210.479 39,197.5C 29.4613,173.331 32.128,150.664 47,129.5C 63.2747,109.227 83.108,93.3937 106.5,82C 127.268,71.6883 148.935,63.8549 171.5,58.5C 174.152,58.5905 176.485,57.9238 178.5,56.5C 198.252,51.5498 218.252,47.8832 238.5,45.5C 240.5,45.5 242.5,45.5 244.5,45.5C 263.829,44.7596 283.162,44.0929 302.5,43.5C 319.847,43.893 337.18,44.5597 354.5,45.5 Z"/></g>
<g><path style="opacity:1" fill="#d65f54" d="M 436.5,73.5 C 439.916,73.5275 442.916,74.5275 445.5,76.5C 442.215,76.0719 439.215,75.0719 436.5,73.5 Z"/></g>
<g><path style="opacity:1" fill="#d75755" d="M 430.5,71.5 C 432.898,71.2594 434.898,71.9261 436.5,73.5C 434.102,73.7406 432.102,73.0739 430.5,71.5 Z"/></g>
<g><path style="opacity:1" fill="#d33432" d="M 372.5,59.5 C 378.523,59.6691 384.523,60.1691 390.5,61C 393.969,61.5354 396.969,62.7021 399.5,64.5C 390.316,63.1383 381.316,61.4716 372.5,59.5 Z"/></g>
<g><path style="opacity:1" fill="#fdfbfb" d="M 279.5,55.5 C 310.613,54.6087 341.613,55.9421 372.5,59.5C 381.316,61.4716 390.316,63.1383 399.5,64.5C 409.632,67.196 419.965,69.5293 430.5,71.5C 432.102,73.0739 434.102,73.7406 436.5,73.5C 439.215,75.0719 442.215,76.0719 445.5,76.5C 474.76,85.5173 501.426,99.3507 525.5,118C 563.761,152.666 564.094,187.666 526.5,223C 514.861,232.825 502.194,241.158 488.5,248C 451.321,265.446 412.321,276.946 371.5,282.5C 362.628,282.93 353.961,283.93 345.5,285.5C 286.682,289.993 228.682,285.159 171.5,271C 138.415,262.619 108.082,248.619 80.5,229C 68.199,219.534 58.3656,208.034 51,194.5C 43.4251,177.689 43.7585,161.023 52,144.5C 62.4727,128.694 75.6393,115.527 91.5,105C 129.172,82.8621 169.839,68.5288 213.5,62C 225.431,59.8906 237.431,58.3906 249.5,57.5C 259.713,57.7716 269.713,57.105 279.5,55.5 Z"/></g>
<g><path style="opacity:1" fill="#d81c16" d="M 375.5,122.5 C 374.603,127.14 374.436,131.806 375,136.5C 375.889,137.888 376.389,137.722 376.5,136C 375.453,134.422 375.453,132.922 376.5,131.5C 378.237,134.918 378.57,138.418 377.5,142C 377.93,143.434 378.764,144.601 380,145.5C 379.383,143.905 379.716,142.572 381,141.5C 382.218,143.019 383.718,144.186 385.5,145C 385.043,145.414 384.709,145.914 384.5,146.5C 389.618,150.458 394.784,150.458 400,146.5C 401.011,147.337 402.178,147.67 403.5,147.5C 400.189,149.978 396.355,150.978 392,150.5C 377.951,149.471 371.618,141.804 373,127.5C 373.374,125.509 374.207,123.842 375.5,122.5 Z"/></g>
<g><path style="opacity:1" fill="#d01b19" d="M 242.5,115.5 C 243.833,134.322 244.5,153.488 244.5,173C 244.5,192.336 244.167,211.503 243.5,230.5C 243.827,192.094 243.494,153.761 242.5,115.5 Z"/></g>
<g><path style="opacity:1" fill="#c50b17" d="M 353.5,115.5 C 352.506,153.761 352.173,192.094 352.5,230.5C 351.833,211.503 351.5,192.336 351.5,173C 351.5,153.488 352.167,134.322 353.5,115.5 Z"/></g>
<g><path style="opacity:1" fill="#f9fef7" d="M 221.5,117.5 C 221.354,119.942 222.187,120.609 224,119.5C 224.419,120.672 225.085,121.672 226,122.5C 226.667,164.167 226.667,205.833 226,247.5C 223.733,247.139 221.566,246.805 219.5,246.5C 220.167,203.5 220.833,160.5 221.5,117.5 Z"/></g>
<g><path style="opacity:1" fill="#f5cecb" d="M 226.5,112.5 C 225.5,114.833 223.833,116.5 221.5,117.5C 220.833,160.5 220.167,203.5 219.5,246.5C 219.333,203.165 219.5,159.832 220,116.5C 222.069,114.915 224.236,113.581 226.5,112.5 Z"/></g>
<g><path style="opacity:1" fill="#d02320" d="M 424.5,150.5 C 424.941,140.35 424.107,130.35 422,120.5C 418.315,117.023 414.149,116.523 409.5,119C 408.565,121.381 408.232,123.881 408.5,126.5C 407.285,123.865 405.951,121.198 404.5,118.5C 421.229,112.887 428.229,118.887 425.5,136.5C 425.499,141.346 425.166,146.012 424.5,150.5 Z"/></g>
<g><path style="opacity:1" fill="#d82822" d="M 427.5,101.5 C 419.83,101.778 412.164,102.111 404.5,102.5C 404.054,107.919 401.554,108.919 397,105.5C 394.709,106.987 392.209,107.987 389.5,108.5C 393.526,105.307 398.193,103.14 403.5,102C 411.647,100.624 419.647,100.457 427.5,101.5 Z"/></g>
<g><path style="opacity:1" fill="#e20405" d="M 427.5,101.5 C 444.597,101.633 458.431,108.3 469,121.5C 476.755,136.083 474.589,148.916 462.5,160C 457.386,163.89 451.719,166.724 445.5,168.5C 453.201,171.518 460.535,175.352 467.5,180C 470.823,182.483 473.157,185.649 474.5,189.5C 476.556,196.34 477.556,203.34 477.5,210.5C 474.988,222.007 468.654,230.84 458.5,237C 448.725,241.921 438.391,244.754 427.5,245.5C 421.5,245.5 415.5,245.5 409.5,245.5C 409.5,244.5 409.5,243.5 409.5,242.5C 408.448,242.351 407.448,242.517 406.5,243C 407.888,243.889 407.722,244.389 406,244.5C 400.092,242.991 394.259,241.324 388.5,239.5C 375.897,232.54 370.397,221.874 372,207.5C 373.744,202.921 376.91,199.921 381.5,198.5C 387.494,197.239 393.494,197.239 399.5,198.5C 403.702,199.863 406.869,202.53 409,206.5C 409.445,213.248 409.112,219.914 408,226.5C 413.595,231.773 419.261,231.773 425,226.5C 426.843,222.536 427.677,218.37 427.5,214C 426.884,205.174 426.384,196.34 426,187.5C 423.734,181.729 419.567,178.395 413.5,177.5C 407.269,176.873 400.935,176.039 394.5,175C 394.333,171.167 394.167,167.333 394,163.5C 400.085,162.688 406.252,162.188 412.5,162C 416.236,161.715 419.236,160.215 421.5,157.5C 422.869,155.268 423.869,152.934 424.5,150.5C 425.166,146.012 425.499,141.346 425.5,136.5C 428.229,118.887 421.229,112.887 404.5,118.5C 405.951,121.198 407.285,123.865 408.5,126.5C 410.317,131.332 410.817,136.332 410,141.5C 408.594,144.409 406.428,146.409 403.5,147.5C 402.178,147.67 401.011,147.337 400,146.5C 394.784,150.458 389.618,150.458 384.5,146.5C 384.709,145.914 385.043,145.414 385.5,145C 383.718,144.186 382.218,143.019 381,141.5C 379.716,142.572 379.383,143.905 380,145.5C 378.764,144.601 377.93,143.434 377.5,142C 378.57,138.418 378.237,134.918 376.5,131.5C 375.453,132.922 375.453,134.422 376.5,136C 376.389,137.722 375.889,137.888 375,136.5C 374.436,131.806 374.603,127.14 375.5,122.5C 378.5,116.167 383.167,111.5 389.5,108.5C 392.209,107.987 394.709,106.987 397,105.5C 401.554,108.919 404.054,107.919 404.5,102.5C 412.164,102.111 419.83,101.778 427.5,101.5 Z"/></g>
<g><path style="opacity:1" fill="#e30103" d="M 291.5,112.5 C 291.167,113.5 290.5,114.167 289.5,114.5C 288.022,114.238 286.689,114.571 285.5,115.5C 286.152,131.294 286.819,146.961 287.5,162.5C 294.5,162.5 301.5,162.5 308.5,162.5C 308.83,146.991 308.496,131.658 307.5,116.5C 305.475,114.804 303.475,113.137 301.5,111.5C 301.5,108.167 301.5,104.833 301.5,101.5C 319.833,101.5 338.167,101.5 356.5,101.5C 356.82,104.898 356.487,108.232 355.5,111.5C 354.914,111.291 354.414,110.957 354,110.5C 353.506,112.134 353.34,113.801 353.5,115.5C 352.167,134.322 351.5,153.488 351.5,173C 351.5,192.336 351.833,211.503 352.5,230.5C 352.5,231.167 352.833,231.5 353.5,231.5C 356.09,235.738 357.09,240.405 356.5,245.5C 339.167,245.5 321.833,245.5 304.5,245.5C 304.335,241.818 304.501,238.152 305,234.5C 306.011,233.663 307.178,233.33 308.5,233.5C 308.5,232.5 308.5,231.5 308.5,230.5C 308.5,211.167 308.5,191.833 308.5,172.5C 301.5,172.5 294.5,172.5 287.5,172.5C 287.333,192.169 287.5,211.836 288,231.5C 288.383,232.056 288.883,232.389 289.5,232.5C 293.175,236.335 294.509,241.001 293.5,246.5C 274.167,246.5 254.833,246.5 235.5,246.5C 235.177,242.774 235.511,239.107 236.5,235.5C 238.724,233.566 241.058,231.899 243.5,230.5C 244.167,211.503 244.5,192.336 244.5,173C 244.5,153.488 243.833,134.322 242.5,115.5C 240.973,115.573 239.973,114.906 239.5,113.5C 239.585,112.005 238.919,111.005 237.5,110.5C 236.516,107.572 236.183,104.572 236.5,101.5C 254.833,101.5 273.167,101.5 291.5,101.5C 291.5,105.167 291.5,108.833 291.5,112.5 Z"/></g>
<g><path style="opacity:1" fill="#fddcd9" d="M 288.5,116.5 C 288.5,131.5 288.5,146.5 288.5,161.5C 294.833,161.5 301.167,161.5 307.5,161.5C 307.5,146.5 307.5,131.5 307.5,116.5C 308.496,131.658 308.83,146.991 308.5,162.5C 301.5,162.5 294.5,162.5 287.5,162.5C 287.17,146.991 287.504,131.658 288.5,116.5 Z"/></g>
<g><path style="opacity:1" fill="#b2161b" d="M 289.5,114.5 C 289.167,115.167 288.833,115.833 288.5,116.5C 287.504,131.658 287.17,146.991 287.5,162.5C 286.819,146.961 286.152,131.294 285.5,115.5C 286.689,114.571 288.022,114.238 289.5,114.5 Z"/></g>
<g><path style="opacity:1" fill="#e20204" d="M 162.5,102.5 C 174.753,123.337 186.753,144.337 198.5,165.5C 198.427,167.027 199.094,168.027 200.5,168.5C 201.695,168.134 202.361,167.301 202.5,166C 201.854,149.36 201.187,132.86 200.5,116.5C 200.167,116.5 199.833,116.5 199.5,116.5C 197.463,115.154 195.463,113.82 193.5,112.5C 191.676,109.154 191.01,105.487 191.5,101.5C 203.58,101.188 215.58,101.521 227.5,102.5C 227.747,105.939 227.414,109.272 226.5,112.5C 224.236,113.581 222.069,114.915 220,116.5C 219.5,159.832 219.333,203.165 219.5,246.5C 212.468,246.83 205.468,246.497 198.5,245.5C 184.392,220.274 170.059,195.274 155.5,170.5C 155.217,169.711 154.717,169.044 154,168.5C 153.171,189.004 153.337,209.337 154.5,229.5C 156.975,232.241 159.975,234.241 163.5,235.5C 163.5,239.167 163.5,242.833 163.5,246.5C 151.167,246.5 138.833,246.5 126.5,246.5C 126.151,242.258 126.817,238.258 128.5,234.5C 130.089,232.694 132.089,231.361 134.5,230.5C 135.833,192.5 135.833,154.5 134.5,116.5C 131.976,115.408 129.643,114.074 127.5,112.5C 126.577,108.936 126.244,105.269 126.5,101.5C 138.58,101.188 150.58,101.521 162.5,102.5 Z"/></g>
<g><path style="opacity:1" fill="#db242e" d="M 200.5,116.5 C 201.187,132.86 201.854,149.36 202.5,166C 202.361,167.301 201.695,168.134 200.5,168.5C 200.5,151.167 200.5,133.833 200.5,116.5 Z"/></g>
<g><path style="opacity:1" fill="#f6c9cb" d="M 199.5,116.5 C 199.833,116.5 200.167,116.5 200.5,116.5C 200.5,133.833 200.5,151.167 200.5,168.5C 199.094,168.027 198.427,167.027 198.5,165.5C 199.496,149.342 199.83,133.009 199.5,116.5 Z"/></g>
<g><path style="opacity:1" fill="#cf2728" d="M 353.5,115.5 C 353.34,113.801 353.506,112.134 354,110.5C 354.414,110.957 354.914,111.291 355.5,111.5C 356.487,108.232 356.82,104.898 356.5,101.5C 338.167,101.5 319.833,101.5 301.5,101.5C 301.5,104.833 301.5,108.167 301.5,111.5C 300.518,108.038 300.185,104.371 300.5,100.5C 319.833,100.5 339.167,100.5 358.5,100.5C 358.665,104.182 358.499,107.848 358,111.5C 356.629,113.041 355.129,114.375 353.5,115.5 Z"/></g>
<g><path style="opacity:1" fill="#d02b2a" d="M 291.5,112.5 C 291.5,108.833 291.5,105.167 291.5,101.5C 273.167,101.5 254.833,101.5 236.5,101.5C 236.183,104.572 236.516,107.572 237.5,110.5C 238.919,111.005 239.585,112.005 239.5,113.5C 238.417,113.461 237.417,113.127 236.5,112.5C 235.509,108.555 235.176,104.555 235.5,100.5C 254.833,100.5 274.167,100.5 293.5,100.5C 293.665,104.182 293.499,107.848 293,111.5C 292.617,112.056 292.117,112.389 291.5,112.5 Z"/></g>
<g><path style="opacity:1" fill="#cc2829" d="M 227.5,102.5 C 215.58,101.521 203.58,101.188 191.5,101.5C 191.01,105.487 191.676,109.154 193.5,112.5C 192.504,112.586 191.671,112.252 191,111.5C 190.501,107.848 190.335,104.182 190.5,100.5C 203.212,99.8536 215.545,100.52 227.5,102.5 Z"/></g>
<g><path style="opacity:1" fill="#d02829" d="M 162.5,102.5 C 150.58,101.521 138.58,101.188 126.5,101.5C 126.244,105.269 126.577,108.936 127.5,112.5C 125.577,108.971 124.911,104.971 125.5,100.5C 138.212,99.8536 150.545,100.52 162.5,102.5 Z"/></g>
<g><path style="opacity:1" fill="#f4cac6" d="M 279.5,55.5 C 269.713,57.105 259.713,57.7716 249.5,57.5C 259.296,56.0206 269.296,55.3539 279.5,55.5 Z"/></g>
<g><path style="opacity:1" fill="#cd2b25" d="M 421.5,157.5 C 419.236,160.215 416.236,161.715 412.5,162C 406.252,162.188 400.085,162.688 394,163.5C 394.167,167.333 394.333,171.167 394.5,175C 400.935,176.039 407.269,176.873 413.5,177.5C 406.716,177.92 400.05,177.42 393.5,176C 389.797,171.209 389.797,166.542 393.5,162C 400.868,161.687 408.201,161.02 415.5,160C 417.628,159.345 419.628,158.511 421.5,157.5 Z"/></g>
<g><path style="opacity:1" fill="#d22c2d" d="M 561.5,146.5 C 566.32,157.106 567.653,168.106 565.5,179.5C 565.666,174.489 565.499,169.489 565,164.5C 563.702,158.492 562.535,152.492 561.5,146.5 Z"/></g>
<g><path style="opacity:1" fill="#ecb7b6" d="M 155.5,170.5 C 154.503,189.993 154.17,209.66 154.5,229.5C 153.337,209.337 153.171,189.004 154,168.5C 154.717,169.044 155.217,169.711 155.5,170.5 Z"/></g>
<g><path style="opacity:1" fill="#d03a38" d="M 399.5,198.5 C 393.494,197.239 387.494,197.239 381.5,198.5C 384.017,197.027 386.85,196.36 390,196.5C 393.451,196.421 396.618,197.087 399.5,198.5 Z"/></g>
<g><path style="opacity:1" fill="#d23633" d="M 474.5,189.5 C 478.392,196.104 479.392,203.104 477.5,210.5C 477.556,203.34 476.556,196.34 474.5,189.5 Z"/></g>
<g><path style="opacity:1" fill="#fdd8d7" d="M 308.5,230.5 C 307.5,231.167 306.5,231.833 305.5,232.5C 307.424,212.961 308.091,193.294 307.5,173.5C 301.167,173.5 294.833,173.5 288.5,173.5C 288.191,193.213 288.524,212.879 289.5,232.5C 288.883,232.389 288.383,232.056 288,231.5C 287.5,211.836 287.333,192.169 287.5,172.5C 294.5,172.5 301.5,172.5 308.5,172.5C 308.5,191.833 308.5,211.167 308.5,230.5 Z"/></g>
<g><path style="opacity:1" fill="#bc3434" d="M 128.5,234.5 C 126.817,238.258 126.151,242.258 126.5,246.5C 126.167,246.5 125.833,246.5 125.5,246.5C 125.335,242.818 125.501,239.152 126,235.5C 126.671,234.748 127.504,234.414 128.5,234.5 Z"/></g>
<g><path style="opacity:1" fill="#d5241e" d="M 388.5,239.5 C 394.259,241.324 400.092,242.991 406,244.5C 407.722,244.389 407.888,243.889 406.5,243C 407.448,242.517 408.448,242.351 409.5,242.5C 409.5,243.5 409.5,244.5 409.5,245.5C 415.5,245.5 421.5,245.5 427.5,245.5C 417.221,247.018 406.888,246.518 396.5,244C 393.641,242.74 390.974,241.24 388.5,239.5 Z"/></g>
<g><path style="opacity:1" fill="#d51511" d="M 308.5,230.5 C 308.5,231.5 308.5,232.5 308.5,233.5C 307.178,233.33 306.011,233.663 305,234.5C 304.501,238.152 304.335,241.818 304.5,245.5C 321.833,245.5 339.167,245.5 356.5,245.5C 357.09,240.405 356.09,235.738 353.5,231.5C 355.145,232.479 356.479,233.812 357.5,235.5C 358.489,239.107 358.823,242.774 358.5,246.5C 339.167,246.5 319.833,246.5 300.5,246.5C 300.335,243.15 300.502,239.817 301,236.5C 302.371,234.959 303.871,233.625 305.5,232.5C 306.5,231.833 307.5,231.167 308.5,230.5 Z"/></g>
<g><path style="opacity:1" fill="#ea9b94" d="M 163.5,235.5 C 164.483,239.298 164.817,243.298 164.5,247.5C 151.323,247.829 138.323,247.495 125.5,246.5C 125.833,246.5 126.167,246.5 126.5,246.5C 138.833,246.5 151.167,246.5 163.5,246.5C 163.5,242.833 163.5,239.167 163.5,235.5 Z"/></g>
<g><path style="opacity:1" fill="#dc5957" d="M 160.5,280.5 C 163.152,280.41 165.485,281.076 167.5,282.5C 164.848,282.59 162.515,281.924 160.5,280.5 Z"/></g>
<g><path style="opacity:1" fill="#d32e29" d="M 371.5,282.5 C 366.495,283.954 361.329,285.288 356,286.5C 352.559,285.618 349.059,285.284 345.5,285.5C 353.961,283.93 362.628,282.93 371.5,282.5 Z"/></g>
<g><path style="opacity:1" fill="#eeadab" d="M 385.5,292.5 C 385.082,293.222 384.416,293.722 383.5,294C 379.83,294.548 376.163,295.048 372.5,295.5C 376.542,293.763 380.876,292.763 385.5,292.5 Z"/></g>
<g><path style="opacity:1" fill="#d82926" d="M 208.5,291.5 C 221.64,293.068 234.807,294.401 248,295.5C 249.841,294.875 251.674,294.708 253.5,295C 252.748,295.671 252.414,296.504 252.5,297.5C 237.529,296.729 222.863,294.729 208.5,291.5 Z"/></g>
<g><path style="opacity:1" fill="#ce5250" d="M 254.5,297.5 C 278.491,298.294 302.491,298.627 326.5,298.5C 311.676,299.496 296.676,299.829 281.5,299.5C 272.278,299.824 263.278,299.157 254.5,297.5 Z"/></g>
<g><path style="opacity:1" fill="#f4d6ce" d="M 344.5,297.5 C 341.992,299.237 338.992,300.07 335.5,300C 317.329,300.829 299.329,300.662 281.5,299.5C 296.676,299.829 311.676,299.496 326.5,298.5C 332.509,298.299 338.509,297.966 344.5,297.5 Z"/></g>
<g><path style="opacity:1" fill="#e5130d" d="M 64.5,329.5 C 67.4475,329.223 70.2809,329.556 73,330.5C 82.1971,355.758 91.1971,381.091 100,406.5C 101.812,409.821 104.645,411.155 108.5,410.5C 108.5,411.5 108.5,412.5 108.5,413.5C 97.1667,413.5 85.8333,413.5 74.5,413.5C 74.5,412.5 74.5,411.5 74.5,410.5C 77.1194,410.768 79.6194,410.435 82,409.5C 82.6667,406.5 82.6667,403.5 82,400.5C 80.1808,395.219 78.6808,389.886 77.5,384.5C 67.8276,384.334 58.1609,384.5 48.5,385C 44.6658,392.834 42.6658,401.001 42.5,409.5C 44.7466,410.374 47.0799,410.708 49.5,410.5C 49.5,411.5 49.5,412.5 49.5,413.5C 41.1667,413.5 32.8333,413.5 24.5,413.5C 24.5,412.5 24.5,411.5 24.5,410.5C 27.9705,411.125 30.8038,410.125 33,407.5C 41.9278,384.383 50.2612,361.05 58,337.5C 58.4966,335.19 58.6633,332.857 58.5,330.5C 60.7354,330.795 62.7354,330.461 64.5,329.5 Z"/></g>
<g><path style="opacity:1" fill="#e5130c" d="M 321.5,331.5 C 336.17,331.333 350.837,331.5 365.5,332C 381.016,334.862 387.182,344.029 384,359.5C 382.193,366.64 377.693,371.14 370.5,373C 362.276,375.517 353.942,376.017 345.5,374.5C 345.333,385.838 345.5,397.172 346,408.5C 348.719,409.444 351.552,409.777 354.5,409.5C 354.5,410.833 354.5,412.167 354.5,413.5C 343.5,413.5 332.5,413.5 321.5,413.5C 321.5,412.167 321.5,410.833 321.5,409.5C 324.448,409.777 327.281,409.444 330,408.5C 330.5,384.169 330.667,359.836 330.5,335.5C 327.5,335.5 324.5,335.5 321.5,335.5C 321.5,334.167 321.5,332.833 321.5,331.5 Z"/></g>
<g><path style="opacity:1" fill="#e4100b" d="M 203.5,333.5 C 204.5,333.5 205.5,333.5 206.5,333.5C 206.5,341.167 206.5,348.833 206.5,356.5C 210.846,356.334 215.179,356.501 219.5,357C 220.337,358.011 220.67,359.178 220.5,360.5C 215.833,360.5 211.167,360.5 206.5,360.5C 206.333,376.17 206.5,391.837 207,407.5C 208.231,408.108 209.564,408.441 211,408.5C 214.2,407.932 217.367,407.265 220.5,406.5C 220.67,407.822 220.337,408.989 219.5,410C 213.168,413.092 206.502,414.092 199.5,413C 195.667,411.833 193.167,409.333 192,405.5C 191.5,390.504 191.333,375.504 191.5,360.5C 188.518,360.104 185.851,360.771 183.5,362.5C 182.319,360.865 182.319,359.198 183.5,357.5C 186.086,356.52 188.753,356.187 191.5,356.5C 191.176,352.445 191.509,348.445 192.5,344.5C 197.188,341.812 200.855,338.145 203.5,333.5 Z"/></g>
<g><path style="opacity:1" fill="#e40d08" d="M 535.5,360.5 C 531.167,360.5 526.833,360.5 522.5,360.5C 522.171,375.676 522.504,390.676 523.5,405.5C 523.414,406.496 523.748,407.329 524.5,408C 525.833,408.167 527.167,408.333 528.5,408.5C 531.582,408.121 534.582,407.454 537.5,406.5C 537.374,409.595 535.707,411.428 532.5,412C 527.225,413.359 521.891,413.692 516.5,413C 510.907,411.235 508.24,407.402 508.5,401.5C 508.5,387.833 508.5,374.167 508.5,360.5C 505.941,360.198 503.607,360.532 501.5,361.5C 500.133,362.853 499.133,362.519 498.5,360.5C 499.04,359.252 499.707,358.085 500.5,357C 503.146,356.503 505.813,356.336 508.5,356.5C 508.176,352.445 508.509,348.445 509.5,344.5C 513.977,341.857 517.643,338.357 520.5,334C 521.448,333.517 522.448,333.351 523.5,333.5C 523.5,341.167 523.5,348.833 523.5,356.5C 527.514,356.334 531.514,356.501 535.5,357C 538.018,358.14 538.018,359.306 535.5,360.5 Z"/></g>
<g><path style="opacity:1" fill="#fefbfb" d="M 345.5,335.5 C 364.101,332.937 371.601,340.937 368,359.5C 364.359,370.936 357.026,374.27 346,369.5C 345.5,358.172 345.333,346.838 345.5,335.5 Z"/></g>
<g><path style="opacity:1" fill="#fff9f8" d="M 74.5,378.5 C 66.5,379.833 58.5,379.833 50.5,378.5C 54.0969,366.71 58.0969,355.043 62.5,343.5C 66.9031,355.043 70.9031,366.71 74.5,378.5 Z"/></g>
<g><path style="opacity:1" fill="#e40f0a" d="M 130.5,352.5 C 131.822,352.33 132.989,352.663 134,353.5C 133.689,368.826 133.689,384.159 134,399.5C 135.762,409.287 140.928,411.787 149.5,407C 152.106,405.062 153.939,402.562 155,399.5C 155.5,386.171 155.667,372.837 155.5,359.5C 153.143,359.663 150.81,359.497 148.5,359C 147.167,358 147.167,357 148.5,356C 155.578,355.156 162.578,353.989 169.5,352.5C 169.333,370.836 169.5,389.17 170,407.5C 172.857,408.143 175.691,408.476 178.5,408.5C 173.317,413.858 167.317,414.858 160.5,411.5C 159.243,409.321 157.743,407.321 156,405.5C 148.296,413.463 139.13,415.63 128.5,412C 123.278,409.067 120.445,404.567 120,398.5C 119.5,385.504 119.333,372.504 119.5,359.5C 117.167,359.5 114.833,359.5 112.5,359.5C 112.33,358.178 112.663,357.011 113.5,356C 119.386,355.246 125.053,354.08 130.5,352.5 Z"/></g>
<g><path style="opacity:1" fill="#e5110b" d="M 250.5,352.5 C 275.591,352.763 286.758,365.43 284,390.5C 281.304,402.198 274.137,409.698 262.5,413C 237.4,415.198 225.233,403.698 226,378.5C 228.563,364.44 236.729,355.773 250.5,352.5 Z"/></g>
<g><path style="opacity:1" fill="#e51810" d="M 484.5,352.5 C 493.494,350.992 497.494,354.825 496.5,364C 496.556,366.538 495.556,368.372 493.5,369.5C 491.183,367.758 489.683,365.424 489,362.5C 486.668,359.209 483.835,358.709 480.5,361C 477.117,364.269 474.617,368.103 473,372.5C 472.5,384.829 472.333,397.162 472.5,409.5C 474.833,409.5 477.167,409.5 479.5,409.5C 479.5,410.5 479.5,411.5 479.5,412.5C 469.5,412.5 459.5,412.5 449.5,412.5C 449.5,411.5 449.5,410.5 449.5,409.5C 452.167,409.5 454.833,409.5 457.5,409.5C 457.667,393.497 457.5,377.497 457,361.5C 454.46,359.98 451.627,358.98 448.5,358.5C 449.09,357.201 450.09,356.368 451.5,356C 457.765,354.58 464.098,353.746 470.5,353.5C 471.045,356.813 471.545,360.146 472,363.5C 475.767,359.224 479.934,355.557 484.5,352.5 Z"/></g>
<g><path style="opacity:1" fill="#e5140d" d="M 554.5,353.5 C 562.915,353.363 571.248,354.029 579.5,355.5C 580.329,360.453 580.663,365.453 580.5,370.5C 578.856,370.714 577.356,370.38 576,369.5C 574.694,364.211 571.861,360.044 567.5,357C 557.593,355.912 553.426,360.412 555,370.5C 560.411,375.46 566.578,379.294 573.5,382C 576.99,384.491 580.157,387.325 583,390.5C 586.287,403.579 581.12,411.079 567.5,413C 560.351,413.912 553.351,413.245 546.5,411C 545.333,410.5 544.5,409.667 544,408.5C 542.515,403.892 541.348,399.226 540.5,394.5C 542.288,394.215 543.955,394.548 545.5,395.5C 547.574,401.739 551.574,406.239 557.5,409C 569.058,410.402 572.891,405.569 569,394.5C 562.583,389.706 555.75,385.539 548.5,382C 541.957,375.402 540.791,367.902 545,359.5C 548.147,357.35 551.313,355.35 554.5,353.5 Z"/></g>
<g><path style="opacity:1" fill="#e5150e" d="M 421.5,377.5 C 422.794,375.952 423.461,373.952 423.5,371.5C 423.495,369.304 423.162,367.304 422.5,365.5C 422.152,358.315 418.485,355.481 411.5,357C 409.714,357.785 408.214,358.951 407,360.5C 406.141,363.659 404.975,366.659 403.5,369.5C 394.237,371.243 392.07,367.909 397,359.5C 404.277,353.983 412.444,352.15 421.5,354C 429.428,355.374 434.595,359.874 437,367.5C 437.221,380.865 437.721,394.199 438.5,407.5C 440.92,407.708 443.253,407.374 445.5,406.5C 446.754,408.259 446.421,409.759 444.5,411C 435.882,415.743 429.215,413.909 424.5,405.5C 419.838,409.915 414.338,412.581 408,413.5C 393.121,411.993 388.121,404.326 393,390.5C 400.79,382.523 410.29,378.19 421.5,377.5 Z"/></g>
<g><path style="opacity:1" fill="#fffbfb" d="M 251.5,355.5 C 259.019,355.177 264.186,358.51 267,365.5C 270.261,377.485 270.261,389.485 267,401.5C 263.278,409.855 257.111,412.355 248.5,409C 244.537,404.573 242.037,399.406 241,393.5C 240.169,385.112 240.503,376.779 242,368.5C 243.488,362.858 246.655,358.525 251.5,355.5 Z"/></g>
<g><path style="opacity:1" fill="#f6a1a0" d="M 422.5,365.5 C 423.162,367.304 423.495,369.304 423.5,371.5C 423.461,373.952 422.794,375.952 421.5,377.5C 422.43,373.6 422.763,369.6 422.5,365.5 Z"/></g>
<g><path style="opacity:1" fill="#f07b7b" d="M 50.5,378.5 C 58.5,379.833 66.5,379.833 74.5,378.5C 75.0431,378.56 75.3764,378.893 75.5,379.5C 66.8333,380.833 58.1667,380.833 49.5,379.5C 49.6236,378.893 49.9569,378.56 50.5,378.5 Z"/></g>
<g><path style="opacity:1" fill="#fef8f8" d="M 418.5,380.5 C 420.167,380.5 421.833,380.5 423.5,380.5C 423.666,387.508 423.5,394.508 423,401.5C 410.236,411.919 404.236,408.919 405,392.5C 407.812,386.524 412.312,382.524 418.5,380.5 Z"/></g>
<g><path style="opacity:1" fill="#f9c7c7" d="M 501.5,361.5 C 503.607,360.532 505.941,360.198 508.5,360.5C 508.5,374.167 508.5,387.833 508.5,401.5C 507.504,388.344 507.171,375.01 507.5,361.5C 505.5,361.5 503.5,361.5 501.5,361.5 Z"/></g>
<g><path style="opacity:1" fill="#ef6362" d="M 535.5,360.5 C 531.702,361.483 527.702,361.817 523.5,361.5C 523.5,376.167 523.5,390.833 523.5,405.5C 522.504,390.676 522.171,375.676 522.5,360.5C 526.833,360.5 531.167,360.5 535.5,360.5 Z"/></g>
</svg>
